<mxfile host="app.diagrams.net" modified="2022-05-23T17:17:57.953Z" agent="5.0 (Macintosh; Intel Mac OS X 10_15_7) AppleWebKit/605.1.15 (KHTML, like Gecko) Version/15.4 Safari/605.1.15" etag="WTWyeXEFiMWgPaVxOflx" version="18.1.1" type="github">
  <diagram id="5tME_Iv4Cdq2cvn0iNmD" name="Page-1">
    <mxGraphModel dx="3206" dy="1179" grid="1" gridSize="10" guides="1" tooltips="1" connect="1" arrows="1" fold="1" page="1" pageScale="1" pageWidth="1169" pageHeight="827" math="0" shadow="0">
      <root>
        <mxCell id="0" />
        <mxCell id="1" parent="0" />
        <mxCell id="wDwf3MUstX6Mv23Rje8A-1" style="edgeStyle=orthogonalEdgeStyle;rounded=0;orthogonalLoop=1;jettySize=auto;html=1;exitX=0.5;exitY=1;exitDx=0;exitDy=0;entryX=0.5;entryY=0;entryDx=0;entryDy=0;" parent="1" source="wDwf3MUstX6Mv23Rje8A-2" target="wDwf3MUstX6Mv23Rje8A-4" edge="1">
          <mxGeometry relative="1" as="geometry" />
        </mxCell>
        <mxCell id="wDwf3MUstX6Mv23Rje8A-2" value="&lt;font style=&quot;font-size: 18px&quot;&gt;Order Initiated&lt;/font&gt;" style="shape=hexagon;perimeter=hexagonPerimeter2;whiteSpace=wrap;html=1;fixedSize=1;fillColor=#f8cecc;strokeColor=#b85450;" parent="1" vertex="1">
          <mxGeometry x="475" y="200" width="220" height="80" as="geometry" />
        </mxCell>
        <mxCell id="wDwf3MUstX6Mv23Rje8A-3" style="edgeStyle=orthogonalEdgeStyle;rounded=0;orthogonalLoop=1;jettySize=auto;html=1;exitX=0.5;exitY=1;exitDx=0;exitDy=0;entryX=0.5;entryY=0;entryDx=0;entryDy=0;" parent="1" source="wDwf3MUstX6Mv23Rje8A-4" target="wDwf3MUstX6Mv23Rje8A-6" edge="1">
          <mxGeometry relative="1" as="geometry" />
        </mxCell>
        <mxCell id="wDwf3MUstX6Mv23Rje8A-4" value="&lt;font style=&quot;font-size: 18px&quot;&gt;Receive Order&lt;/font&gt;" style="rounded=1;whiteSpace=wrap;html=1;fillColor=#d5e8d4;strokeColor=#82b366;" parent="1" vertex="1">
          <mxGeometry x="475" y="390" width="220" height="80" as="geometry" />
        </mxCell>
        <mxCell id="wDwf3MUstX6Mv23Rje8A-11" style="edgeStyle=orthogonalEdgeStyle;rounded=0;orthogonalLoop=1;jettySize=auto;html=1;exitX=0.5;exitY=1;exitDx=0;exitDy=0;entryX=0.5;entryY=0;entryDx=0;entryDy=0;" parent="1" source="wDwf3MUstX6Mv23Rje8A-6" target="wDwf3MUstX6Mv23Rje8A-8" edge="1">
          <mxGeometry relative="1" as="geometry" />
        </mxCell>
        <mxCell id="wDwf3MUstX6Mv23Rje8A-6" value="&lt;font style=&quot;font-size: 18px&quot;&gt;Order received&lt;/font&gt;" style="shape=hexagon;perimeter=hexagonPerimeter2;whiteSpace=wrap;html=1;fixedSize=1;fillColor=#f8cecc;strokeColor=#b85450;" parent="1" vertex="1">
          <mxGeometry x="475" y="580" width="220" height="80" as="geometry" />
        </mxCell>
        <mxCell id="wDwf3MUstX6Mv23Rje8A-13" style="edgeStyle=orthogonalEdgeStyle;rounded=0;orthogonalLoop=1;jettySize=auto;html=1;exitX=0.5;exitY=1;exitDx=0;exitDy=0;entryX=0.5;entryY=0;entryDx=0;entryDy=0;fontSize=18;" parent="1" source="wDwf3MUstX6Mv23Rje8A-8" target="wDwf3MUstX6Mv23Rje8A-12" edge="1">
          <mxGeometry relative="1" as="geometry" />
        </mxCell>
        <mxCell id="wDwf3MUstX6Mv23Rje8A-8" value="&lt;font style=&quot;font-size: 18px&quot;&gt;Check customer status&lt;/font&gt;" style="rounded=1;whiteSpace=wrap;html=1;fillColor=#d5e8d4;strokeColor=#82b366;" parent="1" vertex="1">
          <mxGeometry x="475" y="780" width="220" height="80" as="geometry" />
        </mxCell>
        <mxCell id="wDwf3MUstX6Mv23Rje8A-16" style="edgeStyle=orthogonalEdgeStyle;rounded=0;orthogonalLoop=1;jettySize=auto;html=1;exitX=0;exitY=0.5;exitDx=0;exitDy=0;entryX=0.5;entryY=0;entryDx=0;entryDy=0;fontSize=18;" parent="1" source="wDwf3MUstX6Mv23Rje8A-12" target="wDwf3MUstX6Mv23Rje8A-14" edge="1">
          <mxGeometry relative="1" as="geometry" />
        </mxCell>
        <mxCell id="wDwf3MUstX6Mv23Rje8A-17" style="edgeStyle=orthogonalEdgeStyle;rounded=0;orthogonalLoop=1;jettySize=auto;html=1;exitX=1;exitY=0.5;exitDx=0;exitDy=0;entryX=0.5;entryY=0;entryDx=0;entryDy=0;fontSize=18;" parent="1" source="wDwf3MUstX6Mv23Rje8A-12" target="wDwf3MUstX6Mv23Rje8A-15" edge="1">
          <mxGeometry relative="1" as="geometry" />
        </mxCell>
        <mxCell id="wDwf3MUstX6Mv23Rje8A-12" value="&lt;font style=&quot;font-size: 18px&quot;&gt;V&lt;/font&gt;" style="ellipse;whiteSpace=wrap;html=1;aspect=fixed;" parent="1" vertex="1">
          <mxGeometry x="545" y="980" width="80" height="80" as="geometry" />
        </mxCell>
        <mxCell id="wDwf3MUstX6Mv23Rje8A-19" style="edgeStyle=orthogonalEdgeStyle;rounded=0;orthogonalLoop=1;jettySize=auto;html=1;exitX=0.5;exitY=1;exitDx=0;exitDy=0;entryX=0.5;entryY=0;entryDx=0;entryDy=0;fontSize=18;" parent="1" source="wDwf3MUstX6Mv23Rje8A-14" target="wDwf3MUstX6Mv23Rje8A-18" edge="1">
          <mxGeometry relative="1" as="geometry" />
        </mxCell>
        <mxCell id="wDwf3MUstX6Mv23Rje8A-14" value="&lt;font style=&quot;font-size: 18px&quot;&gt;New Customer&lt;/font&gt;" style="shape=hexagon;perimeter=hexagonPerimeter2;whiteSpace=wrap;html=1;fixedSize=1;fillColor=#f8cecc;strokeColor=#b85450;" parent="1" vertex="1">
          <mxGeometry x="180" y="1180" width="220" height="80" as="geometry" />
        </mxCell>
        <mxCell id="wDwf3MUstX6Mv23Rje8A-23" style="edgeStyle=orthogonalEdgeStyle;rounded=0;orthogonalLoop=1;jettySize=auto;html=1;exitX=0.5;exitY=1;exitDx=0;exitDy=0;entryX=0.5;entryY=0;entryDx=0;entryDy=0;fontSize=18;" parent="1" source="wDwf3MUstX6Mv23Rje8A-15" target="wDwf3MUstX6Mv23Rje8A-22" edge="1">
          <mxGeometry relative="1" as="geometry" />
        </mxCell>
        <mxCell id="wDwf3MUstX6Mv23Rje8A-15" value="&lt;font style=&quot;font-size: 18px&quot;&gt;Old Customer&lt;/font&gt;" style="shape=hexagon;perimeter=hexagonPerimeter2;whiteSpace=wrap;html=1;fixedSize=1;fillColor=#f8cecc;strokeColor=#b85450;" parent="1" vertex="1">
          <mxGeometry x="770" y="1180" width="220" height="80" as="geometry" />
        </mxCell>
        <mxCell id="wDwf3MUstX6Mv23Rje8A-21" style="edgeStyle=orthogonalEdgeStyle;rounded=0;orthogonalLoop=1;jettySize=auto;html=1;exitX=0.5;exitY=1;exitDx=0;exitDy=0;entryX=0.5;entryY=0;entryDx=0;entryDy=0;fontSize=18;" parent="1" source="wDwf3MUstX6Mv23Rje8A-18" target="wDwf3MUstX6Mv23Rje8A-20" edge="1">
          <mxGeometry relative="1" as="geometry" />
        </mxCell>
        <mxCell id="wDwf3MUstX6Mv23Rje8A-18" value="&lt;font style=&quot;font-size: 18px&quot;&gt;Register New Customer&lt;/font&gt;" style="rounded=1;whiteSpace=wrap;html=1;fillColor=#d5e8d4;strokeColor=#82b366;" parent="1" vertex="1">
          <mxGeometry x="180" y="1410" width="220" height="80" as="geometry" />
        </mxCell>
        <mxCell id="wDwf3MUstX6Mv23Rje8A-26" style="edgeStyle=orthogonalEdgeStyle;rounded=0;orthogonalLoop=1;jettySize=auto;html=1;exitX=1;exitY=0.5;exitDx=0;exitDy=0;entryX=0;entryY=0.5;entryDx=0;entryDy=0;fontSize=18;" parent="1" source="wDwf3MUstX6Mv23Rje8A-20" target="wDwf3MUstX6Mv23Rje8A-22" edge="1">
          <mxGeometry relative="1" as="geometry" />
        </mxCell>
        <mxCell id="wDwf3MUstX6Mv23Rje8A-20" value="&lt;font style=&quot;font-size: 18px&quot;&gt;New Customer Registered&lt;/font&gt;" style="shape=hexagon;perimeter=hexagonPerimeter2;whiteSpace=wrap;html=1;fixedSize=1;fillColor=#f8cecc;strokeColor=#b85450;" parent="1" vertex="1">
          <mxGeometry x="180" y="1640" width="220" height="80" as="geometry" />
        </mxCell>
        <mxCell id="wDwf3MUstX6Mv23Rje8A-28" style="edgeStyle=orthogonalEdgeStyle;rounded=0;orthogonalLoop=1;jettySize=auto;html=1;exitX=0.5;exitY=1;exitDx=0;exitDy=0;entryX=0.5;entryY=0;entryDx=0;entryDy=0;fontSize=18;" parent="1" source="wDwf3MUstX6Mv23Rje8A-22" target="wDwf3MUstX6Mv23Rje8A-27" edge="1">
          <mxGeometry relative="1" as="geometry" />
        </mxCell>
        <mxCell id="wDwf3MUstX6Mv23Rje8A-22" value="&lt;font style=&quot;font-size: 18px&quot;&gt;V&lt;/font&gt;" style="ellipse;whiteSpace=wrap;html=1;aspect=fixed;" parent="1" vertex="1">
          <mxGeometry x="840" y="1410" width="80" height="80" as="geometry" />
        </mxCell>
        <mxCell id="wDwf3MUstX6Mv23Rje8A-27" value="&lt;font style=&quot;font-size: 18px&quot;&gt;Register the order&lt;/font&gt;" style="rounded=1;whiteSpace=wrap;html=1;fillColor=#d5e8d4;strokeColor=#82b366;" parent="1" vertex="1">
          <mxGeometry x="770" y="1640" width="220" height="80" as="geometry" />
        </mxCell>
        <mxCell id="wDwf3MUstX6Mv23Rje8A-30" style="edgeStyle=orthogonalEdgeStyle;rounded=0;orthogonalLoop=1;jettySize=auto;html=1;exitX=0.5;exitY=1;exitDx=0;exitDy=0;entryX=0.5;entryY=0;entryDx=0;entryDy=0;fontSize=18;" parent="1" target="wDwf3MUstX6Mv23Rje8A-31" edge="1">
          <mxGeometry relative="1" as="geometry">
            <mxPoint x="880" y="1720" as="sourcePoint" />
          </mxGeometry>
        </mxCell>
        <mxCell id="wDwf3MUstX6Mv23Rje8A-31" value="&lt;font style=&quot;font-size: 18px&quot;&gt;Order registered&lt;/font&gt;" style="shape=hexagon;perimeter=hexagonPerimeter2;whiteSpace=wrap;html=1;fixedSize=1;fillColor=#f8cecc;strokeColor=#b85450;" parent="1" vertex="1">
          <mxGeometry x="770" y="1980" width="220" height="80" as="geometry" />
        </mxCell>
        <mxCell id="wDwf3MUstX6Mv23Rje8A-33" value="&lt;span style=&quot;font-size: 18px&quot;&gt;Check previous Orders&lt;/span&gt;" style="rounded=1;whiteSpace=wrap;html=1;fillColor=#d5e8d4;strokeColor=#82b366;" parent="1" vertex="1">
          <mxGeometry x="770" y="2300" width="220" height="80" as="geometry" />
        </mxCell>
        <mxCell id="wDwf3MUstX6Mv23Rje8A-37" style="edgeStyle=orthogonalEdgeStyle;rounded=0;orthogonalLoop=1;jettySize=auto;html=1;exitX=0.5;exitY=1;exitDx=0;exitDy=0;entryX=0.5;entryY=0;entryDx=0;entryDy=0;fontSize=18;" parent="1" target="wDwf3MUstX6Mv23Rje8A-40" edge="1">
          <mxGeometry relative="1" as="geometry">
            <mxPoint x="879.9999999999998" y="2380" as="sourcePoint" />
          </mxGeometry>
        </mxCell>
        <mxCell id="wDwf3MUstX6Mv23Rje8A-38" style="edgeStyle=orthogonalEdgeStyle;rounded=0;orthogonalLoop=1;jettySize=auto;html=1;exitX=0;exitY=0.5;exitDx=0;exitDy=0;entryX=0.5;entryY=0;entryDx=0;entryDy=0;fontSize=18;" parent="1" source="wDwf3MUstX6Mv23Rje8A-40" target="wDwf3MUstX6Mv23Rje8A-41" edge="1">
          <mxGeometry relative="1" as="geometry" />
        </mxCell>
        <mxCell id="wDwf3MUstX6Mv23Rje8A-39" style="edgeStyle=orthogonalEdgeStyle;rounded=0;orthogonalLoop=1;jettySize=auto;html=1;exitX=1;exitY=0.5;exitDx=0;exitDy=0;entryX=0.5;entryY=0;entryDx=0;entryDy=0;fontSize=18;" parent="1" source="wDwf3MUstX6Mv23Rje8A-40" target="wDwf3MUstX6Mv23Rje8A-42" edge="1">
          <mxGeometry relative="1" as="geometry">
            <mxPoint x="1259.999999999999" y="2550" as="sourcePoint" />
          </mxGeometry>
        </mxCell>
        <mxCell id="wDwf3MUstX6Mv23Rje8A-40" value="&lt;font style=&quot;font-size: 18px&quot;&gt;V&lt;/font&gt;" style="ellipse;whiteSpace=wrap;html=1;aspect=fixed;" parent="1" vertex="1">
          <mxGeometry x="840" y="2500" width="80" height="80" as="geometry" />
        </mxCell>
        <mxCell id="wDwf3MUstX6Mv23Rje8A-41" value="&lt;font size=&quot;4&quot;&gt;Same label type found&lt;/font&gt;" style="shape=hexagon;perimeter=hexagonPerimeter2;whiteSpace=wrap;html=1;fixedSize=1;fillColor=#f8cecc;strokeColor=#b85450;" parent="1" vertex="1">
          <mxGeometry x="475" y="2700" width="220" height="80" as="geometry" />
        </mxCell>
        <mxCell id="wDwf3MUstX6Mv23Rje8A-42" value="&lt;font style=&quot;font-size: 18px&quot;&gt;Same label type not found&lt;/font&gt;" style="shape=hexagon;perimeter=hexagonPerimeter2;whiteSpace=wrap;html=1;fixedSize=1;fillColor=#f8cecc;strokeColor=#b85450;" parent="1" vertex="1">
          <mxGeometry x="1405" y="2710" width="220" height="80" as="geometry" />
        </mxCell>
        <mxCell id="wDwf3MUstX6Mv23Rje8A-43" style="edgeStyle=orthogonalEdgeStyle;rounded=0;orthogonalLoop=1;jettySize=auto;html=1;exitX=0.5;exitY=1;exitDx=0;exitDy=0;entryX=0.5;entryY=0;entryDx=0;entryDy=0;fontSize=18;" parent="1" target="wDwf3MUstX6Mv23Rje8A-44" edge="1">
          <mxGeometry relative="1" as="geometry">
            <mxPoint x="1515.0000000000002" y="2790" as="sourcePoint" />
          </mxGeometry>
        </mxCell>
        <mxCell id="wDwf3MUstX6Mv23Rje8A-44" value="&lt;font style=&quot;font-size: 18px&quot;&gt;Check order for predesigned label&lt;/font&gt;" style="rounded=1;whiteSpace=wrap;html=1;fillColor=#d5e8d4;strokeColor=#82b366;" parent="1" vertex="1">
          <mxGeometry x="1405" y="2940" width="220" height="80" as="geometry" />
        </mxCell>
        <mxCell id="wDwf3MUstX6Mv23Rje8A-47" style="edgeStyle=orthogonalEdgeStyle;rounded=0;orthogonalLoop=1;jettySize=auto;html=1;exitX=0.5;exitY=1;exitDx=0;exitDy=0;entryX=0.5;entryY=0;entryDx=0;entryDy=0;fontSize=18;" parent="1" target="3kbX1bf6PnozNMtrNUod-8" edge="1">
          <mxGeometry relative="1" as="geometry">
            <mxPoint x="585" y="2780" as="sourcePoint" />
          </mxGeometry>
        </mxCell>
        <mxCell id="3kbX1bf6PnozNMtrNUod-11" style="edgeStyle=orthogonalEdgeStyle;rounded=0;orthogonalLoop=1;jettySize=auto;html=1;exitX=0.5;exitY=1;exitDx=0;exitDy=0;entryX=0.5;entryY=0;entryDx=0;entryDy=0;" parent="1" source="wDwf3MUstX6Mv23Rje8A-48" target="wDwf3MUstX6Mv23Rje8A-50" edge="1">
          <mxGeometry relative="1" as="geometry" />
        </mxCell>
        <mxCell id="wDwf3MUstX6Mv23Rje8A-48" value="&lt;font style=&quot;font-size: 18px&quot;&gt;Calculate the order cost&lt;/font&gt;" style="rounded=1;whiteSpace=wrap;html=1;fillColor=#d5e8d4;strokeColor=#82b366;" parent="1" vertex="1">
          <mxGeometry x="475" y="3070" width="220" height="80" as="geometry" />
        </mxCell>
        <mxCell id="wDwf3MUstX6Mv23Rje8A-50" value="&lt;font style=&quot;font-size: 18px&quot;&gt;Order Cost Sent&lt;/font&gt;" style="shape=hexagon;perimeter=hexagonPerimeter2;whiteSpace=wrap;html=1;fixedSize=1;fillColor=#f8cecc;strokeColor=#b85450;" parent="1" vertex="1">
          <mxGeometry x="475" y="3260" width="220" height="80" as="geometry" />
        </mxCell>
        <mxCell id="wDwf3MUstX6Mv23Rje8A-51" style="edgeStyle=orthogonalEdgeStyle;rounded=0;orthogonalLoop=1;jettySize=auto;html=1;exitX=0.5;exitY=1;exitDx=0;exitDy=0;entryX=0.5;entryY=0;entryDx=0;entryDy=0;fontSize=18;" parent="1" target="wDwf3MUstX6Mv23Rje8A-52" edge="1">
          <mxGeometry relative="1" as="geometry">
            <mxPoint x="585.0000000000002" y="3340" as="sourcePoint" />
          </mxGeometry>
        </mxCell>
        <mxCell id="wDwf3MUstX6Mv23Rje8A-52" value="&lt;font style=&quot;font-size: 18px;&quot;&gt;Wait for customer response&lt;/font&gt;" style="rounded=1;whiteSpace=wrap;html=1;fillColor=#d5e8d4;strokeColor=#82b366;" parent="1" vertex="1">
          <mxGeometry x="475" y="3490" width="220" height="80" as="geometry" />
        </mxCell>
        <mxCell id="wDwf3MUstX6Mv23Rje8A-53" style="edgeStyle=orthogonalEdgeStyle;rounded=0;orthogonalLoop=1;jettySize=auto;html=1;exitX=0.5;exitY=1;exitDx=0;exitDy=0;entryX=0.5;entryY=0;entryDx=0;entryDy=0;fontSize=18;" parent="1" target="wDwf3MUstX6Mv23Rje8A-56" edge="1">
          <mxGeometry relative="1" as="geometry">
            <mxPoint x="584.9999999999998" y="3570" as="sourcePoint" />
          </mxGeometry>
        </mxCell>
        <mxCell id="wDwf3MUstX6Mv23Rje8A-54" style="edgeStyle=orthogonalEdgeStyle;rounded=0;orthogonalLoop=1;jettySize=auto;html=1;exitX=0;exitY=0.5;exitDx=0;exitDy=0;entryX=0.5;entryY=0;entryDx=0;entryDy=0;fontSize=18;" parent="1" source="wDwf3MUstX6Mv23Rje8A-56" target="wDwf3MUstX6Mv23Rje8A-57" edge="1">
          <mxGeometry relative="1" as="geometry" />
        </mxCell>
        <mxCell id="wDwf3MUstX6Mv23Rje8A-55" style="edgeStyle=orthogonalEdgeStyle;rounded=0;orthogonalLoop=1;jettySize=auto;html=1;exitX=1;exitY=0.5;exitDx=0;exitDy=0;entryX=0.5;entryY=0;entryDx=0;entryDy=0;fontSize=18;" parent="1" source="wDwf3MUstX6Mv23Rje8A-56" target="wDwf3MUstX6Mv23Rje8A-58" edge="1">
          <mxGeometry relative="1" as="geometry" />
        </mxCell>
        <mxCell id="wDwf3MUstX6Mv23Rje8A-56" value="&lt;font style=&quot;font-size: 18px&quot;&gt;V&lt;/font&gt;" style="ellipse;whiteSpace=wrap;html=1;aspect=fixed;" parent="1" vertex="1">
          <mxGeometry x="545" y="3690" width="80" height="80" as="geometry" />
        </mxCell>
        <mxCell id="wDwf3MUstX6Mv23Rje8A-57" value="&lt;font style=&quot;font-size: 18px&quot;&gt;Customer Rejects&lt;/font&gt;" style="shape=hexagon;perimeter=hexagonPerimeter2;whiteSpace=wrap;html=1;fixedSize=1;fillColor=#f8cecc;strokeColor=#b85450;" parent="1" vertex="1">
          <mxGeometry x="180" y="3890" width="220" height="80" as="geometry" />
        </mxCell>
        <mxCell id="wDwf3MUstX6Mv23Rje8A-58" value="&lt;font style=&quot;font-size: 18px&quot;&gt;Customer Accepts&lt;/font&gt;" style="shape=hexagon;perimeter=hexagonPerimeter2;whiteSpace=wrap;html=1;fixedSize=1;fillColor=#f8cecc;strokeColor=#b85450;" parent="1" vertex="1">
          <mxGeometry x="770" y="3890" width="220" height="80" as="geometry" />
        </mxCell>
        <mxCell id="wDwf3MUstX6Mv23Rje8A-59" style="edgeStyle=orthogonalEdgeStyle;rounded=0;orthogonalLoop=1;jettySize=auto;html=1;exitX=0.5;exitY=1;exitDx=0;exitDy=0;entryX=0.5;entryY=0;entryDx=0;entryDy=0;fontSize=18;" parent="1" target="wDwf3MUstX6Mv23Rje8A-60" edge="1">
          <mxGeometry relative="1" as="geometry">
            <mxPoint x="290.0000000000002" y="3970" as="sourcePoint" />
          </mxGeometry>
        </mxCell>
        <mxCell id="wDwf3MUstX6Mv23Rje8A-60" value="&lt;font style=&quot;font-size: 18px&quot;&gt;Cancel the order&lt;/font&gt;" style="rounded=1;whiteSpace=wrap;html=1;fillColor=#d5e8d4;strokeColor=#82b366;" parent="1" vertex="1">
          <mxGeometry x="180" y="4120" width="220" height="80" as="geometry" />
        </mxCell>
        <mxCell id="wDwf3MUstX6Mv23Rje8A-61" style="edgeStyle=orthogonalEdgeStyle;rounded=0;orthogonalLoop=1;jettySize=auto;html=1;exitX=0.5;exitY=1;exitDx=0;exitDy=0;entryX=0.5;entryY=0;entryDx=0;entryDy=0;fontSize=18;" parent="1" target="wDwf3MUstX6Mv23Rje8A-62" edge="1">
          <mxGeometry relative="1" as="geometry">
            <mxPoint x="290.0000000000002" y="4200" as="sourcePoint" />
          </mxGeometry>
        </mxCell>
        <mxCell id="wDwf3MUstX6Mv23Rje8A-62" value="&lt;font style=&quot;font-size: 18px&quot;&gt;Order Canceled&lt;/font&gt;" style="shape=hexagon;perimeter=hexagonPerimeter2;whiteSpace=wrap;html=1;fixedSize=1;fillColor=#f8cecc;strokeColor=#b85450;" parent="1" vertex="1">
          <mxGeometry x="180" y="4350" width="220" height="80" as="geometry" />
        </mxCell>
        <mxCell id="wDwf3MUstX6Mv23Rje8A-63" style="edgeStyle=orthogonalEdgeStyle;rounded=0;orthogonalLoop=1;jettySize=auto;html=1;exitX=0.5;exitY=1;exitDx=0;exitDy=0;entryX=0.5;entryY=0;entryDx=0;entryDy=0;fontSize=18;" parent="1" target="wDwf3MUstX6Mv23Rje8A-64" edge="1">
          <mxGeometry relative="1" as="geometry">
            <mxPoint x="880" y="3970" as="sourcePoint" />
          </mxGeometry>
        </mxCell>
        <mxCell id="wDwf3MUstX6Mv23Rje8A-64" value="&lt;font style=&quot;font-size: 18px&quot;&gt;Print order and archive with the design&lt;/font&gt;" style="rounded=1;whiteSpace=wrap;html=1;fillColor=#d5e8d4;strokeColor=#82b366;" parent="1" vertex="1">
          <mxGeometry x="770" y="4120" width="220" height="80" as="geometry" />
        </mxCell>
        <mxCell id="wDwf3MUstX6Mv23Rje8A-65" style="edgeStyle=orthogonalEdgeStyle;rounded=0;orthogonalLoop=1;jettySize=auto;html=1;exitX=0.5;exitY=1;exitDx=0;exitDy=0;entryX=0.5;entryY=0;entryDx=0;entryDy=0;fontSize=18;" parent="1" target="wDwf3MUstX6Mv23Rje8A-66" edge="1">
          <mxGeometry relative="1" as="geometry">
            <mxPoint x="880" y="4200" as="sourcePoint" />
          </mxGeometry>
        </mxCell>
        <mxCell id="wDwf3MUstX6Mv23Rje8A-66" value="&lt;font style=&quot;font-size: 18px&quot;&gt;Order Archived&lt;/font&gt;" style="shape=hexagon;perimeter=hexagonPerimeter2;whiteSpace=wrap;html=1;fixedSize=1;fillColor=#f8cecc;strokeColor=#b85450;" parent="1" vertex="1">
          <mxGeometry x="770" y="4350" width="220" height="80" as="geometry" />
        </mxCell>
        <mxCell id="wDwf3MUstX6Mv23Rje8A-67" style="edgeStyle=orthogonalEdgeStyle;rounded=0;orthogonalLoop=1;jettySize=auto;html=1;exitX=0.5;exitY=1;exitDx=0;exitDy=0;entryX=0.5;entryY=0;entryDx=0;entryDy=0;fontSize=18;" parent="1" target="wDwf3MUstX6Mv23Rje8A-33" edge="1">
          <mxGeometry relative="1" as="geometry">
            <mxPoint x="880" y="1950" as="sourcePoint" />
            <mxPoint x="879.9999999999991" y="2070" as="targetPoint" />
          </mxGeometry>
        </mxCell>
        <mxCell id="wDwf3MUstX6Mv23Rje8A-79" style="edgeStyle=orthogonalEdgeStyle;rounded=0;orthogonalLoop=1;jettySize=auto;html=1;exitX=1;exitY=0.5;exitDx=0;exitDy=0;entryX=0.003;entryY=0.641;entryDx=0;entryDy=0;entryPerimeter=0;fontSize=18;endArrow=none;endFill=0;" parent="1" source="wDwf3MUstX6Mv23Rje8A-71" target="wDwf3MUstX6Mv23Rje8A-8" edge="1">
          <mxGeometry relative="1" as="geometry" />
        </mxCell>
        <mxCell id="wDwf3MUstX6Mv23Rje8A-80" style="edgeStyle=orthogonalEdgeStyle;rounded=0;orthogonalLoop=1;jettySize=auto;html=1;exitX=0.5;exitY=0;exitDx=0;exitDy=0;entryX=0;entryY=0.5;entryDx=0;entryDy=0;fontSize=18;endArrow=none;endFill=0;" parent="1" source="wDwf3MUstX6Mv23Rje8A-71" target="wDwf3MUstX6Mv23Rje8A-4" edge="1">
          <mxGeometry relative="1" as="geometry" />
        </mxCell>
        <mxCell id="3kbX1bf6PnozNMtrNUod-1" style="edgeStyle=orthogonalEdgeStyle;rounded=0;orthogonalLoop=1;jettySize=auto;html=1;exitX=0.5;exitY=1;exitDx=0;exitDy=0;entryX=0;entryY=0.5;entryDx=0;entryDy=0;" parent="1" source="wDwf3MUstX6Mv23Rje8A-71" target="wDwf3MUstX6Mv23Rje8A-18" edge="1">
          <mxGeometry relative="1" as="geometry" />
        </mxCell>
        <mxCell id="wDwf3MUstX6Mv23Rje8A-71" value="Order Registration Team&lt;br&gt;(Back Office)" style="ellipse;whiteSpace=wrap;html=1;fontSize=18;fillColor=#ffe6cc;strokeColor=#d79b00;" parent="1" vertex="1">
          <mxGeometry x="-240" y="790" width="300" height="80" as="geometry" />
        </mxCell>
        <mxCell id="wDwf3MUstX6Mv23Rje8A-72" value="" style="endArrow=none;html=1;rounded=0;fontSize=18;entryX=0;entryY=0;entryDx=0;entryDy=0;exitX=0;exitY=1;exitDx=0;exitDy=0;" parent="1" source="wDwf3MUstX6Mv23Rje8A-71" target="wDwf3MUstX6Mv23Rje8A-71" edge="1">
          <mxGeometry width="50" height="50" relative="1" as="geometry">
            <mxPoint x="1160" y="590" as="sourcePoint" />
            <mxPoint x="1210" y="540" as="targetPoint" />
          </mxGeometry>
        </mxCell>
        <mxCell id="3kbX1bf6PnozNMtrNUod-2" style="edgeStyle=orthogonalEdgeStyle;rounded=0;orthogonalLoop=1;jettySize=auto;html=1;exitX=0.5;exitY=1;exitDx=0;exitDy=0;entryX=0.5;entryY=0;entryDx=0;entryDy=0;fontSize=18;" parent="1" source="wDwf3MUstX6Mv23Rje8A-44" target="3kbX1bf6PnozNMtrNUod-5" edge="1">
          <mxGeometry relative="1" as="geometry">
            <mxPoint x="1574.999999999999" y="3080" as="sourcePoint" />
          </mxGeometry>
        </mxCell>
        <mxCell id="3kbX1bf6PnozNMtrNUod-3" style="edgeStyle=orthogonalEdgeStyle;rounded=0;orthogonalLoop=1;jettySize=auto;html=1;exitX=0;exitY=0.5;exitDx=0;exitDy=0;entryX=0.5;entryY=0;entryDx=0;entryDy=0;fontSize=18;" parent="1" source="3kbX1bf6PnozNMtrNUod-5" target="3kbX1bf6PnozNMtrNUod-6" edge="1">
          <mxGeometry relative="1" as="geometry" />
        </mxCell>
        <mxCell id="3kbX1bf6PnozNMtrNUod-4" style="edgeStyle=orthogonalEdgeStyle;rounded=0;orthogonalLoop=1;jettySize=auto;html=1;exitX=1;exitY=0.5;exitDx=0;exitDy=0;entryX=0.5;entryY=0;entryDx=0;entryDy=0;fontSize=18;" parent="1" source="3kbX1bf6PnozNMtrNUod-5" target="3kbX1bf6PnozNMtrNUod-7" edge="1">
          <mxGeometry relative="1" as="geometry" />
        </mxCell>
        <mxCell id="3kbX1bf6PnozNMtrNUod-5" value="&lt;font style=&quot;font-size: 18px&quot;&gt;V&lt;/font&gt;" style="ellipse;whiteSpace=wrap;html=1;aspect=fixed;" parent="1" vertex="1">
          <mxGeometry x="1475" y="3200" width="80" height="80" as="geometry" />
        </mxCell>
        <mxCell id="3kbX1bf6PnozNMtrNUod-13" style="edgeStyle=orthogonalEdgeStyle;rounded=0;orthogonalLoop=1;jettySize=auto;html=1;exitX=0;exitY=0.5;exitDx=0;exitDy=0;entryX=1;entryY=0.5;entryDx=0;entryDy=0;" parent="1" source="3kbX1bf6PnozNMtrNUod-6" target="3kbX1bf6PnozNMtrNUod-8" edge="1">
          <mxGeometry relative="1" as="geometry" />
        </mxCell>
        <mxCell id="3kbX1bf6PnozNMtrNUod-6" value="&lt;font size=&quot;4&quot;&gt;Pre-designed&amp;nbsp;label found&lt;/font&gt;" style="shape=hexagon;perimeter=hexagonPerimeter2;whiteSpace=wrap;html=1;fixedSize=1;fillColor=#f8cecc;strokeColor=#b85450;" parent="1" vertex="1">
          <mxGeometry x="1110" y="3400" width="220" height="80" as="geometry" />
        </mxCell>
        <mxCell id="3kbX1bf6PnozNMtrNUod-7" value="&lt;font style=&quot;font-size: 18px&quot;&gt;Same label type not found&lt;/font&gt;" style="shape=hexagon;perimeter=hexagonPerimeter2;whiteSpace=wrap;html=1;fixedSize=1;fillColor=#f8cecc;strokeColor=#b85450;" parent="1" vertex="1">
          <mxGeometry x="1700" y="3400" width="220" height="80" as="geometry" />
        </mxCell>
        <mxCell id="3kbX1bf6PnozNMtrNUod-12" style="edgeStyle=orthogonalEdgeStyle;rounded=0;orthogonalLoop=1;jettySize=auto;html=1;exitX=0.5;exitY=1;exitDx=0;exitDy=0;entryX=0.5;entryY=0;entryDx=0;entryDy=0;" parent="1" source="3kbX1bf6PnozNMtrNUod-8" target="wDwf3MUstX6Mv23Rje8A-48" edge="1">
          <mxGeometry relative="1" as="geometry" />
        </mxCell>
        <mxCell id="3kbX1bf6PnozNMtrNUod-8" value="&lt;font style=&quot;font-size: 18px&quot;&gt;V&lt;/font&gt;" style="ellipse;whiteSpace=wrap;html=1;aspect=fixed;" parent="1" vertex="1">
          <mxGeometry x="545" y="2895" width="80" height="80" as="geometry" />
        </mxCell>
        <mxCell id="rt0IrwSkyU84ZXrt_7lH-1" style="edgeStyle=orthogonalEdgeStyle;rounded=0;orthogonalLoop=1;jettySize=auto;html=1;exitX=0.5;exitY=1;exitDx=0;exitDy=0;entryX=0.5;entryY=0;entryDx=0;entryDy=0;fontSize=18;" edge="1" target="rt0IrwSkyU84ZXrt_7lH-2" parent="1" source="wDwf3MUstX6Mv23Rje8A-66">
          <mxGeometry relative="1" as="geometry">
            <mxPoint x="879.9999999999991" y="4470" as="sourcePoint" />
          </mxGeometry>
        </mxCell>
        <mxCell id="rt0IrwSkyU84ZXrt_7lH-2" value="&lt;font style=&quot;font-size: 18px&quot;&gt;Forward the order to pre-print stage&lt;/font&gt;" style="rounded=1;whiteSpace=wrap;html=1;fillColor=#d5e8d4;strokeColor=#82b366;" vertex="1" parent="1">
          <mxGeometry x="770" y="4580" width="220" height="80" as="geometry" />
        </mxCell>
        <mxCell id="rt0IrwSkyU84ZXrt_7lH-3" style="edgeStyle=orthogonalEdgeStyle;rounded=0;orthogonalLoop=1;jettySize=auto;html=1;exitX=1;exitY=0.5;exitDx=0;exitDy=0;entryX=0;entryY=0.5;entryDx=0;entryDy=0;fontSize=18;" edge="1" target="rt0IrwSkyU84ZXrt_7lH-4" parent="1" source="rt0IrwSkyU84ZXrt_7lH-2">
          <mxGeometry relative="1" as="geometry">
            <mxPoint x="1278.999999999999" y="4430" as="sourcePoint" />
          </mxGeometry>
        </mxCell>
        <mxCell id="rt0IrwSkyU84ZXrt_7lH-4" value="&lt;font style=&quot;font-size: 18px&quot;&gt;Order Forwarded&lt;/font&gt;" style="shape=hexagon;perimeter=hexagonPerimeter2;whiteSpace=wrap;html=1;fixedSize=1;fillColor=#f8cecc;strokeColor=#b85450;" vertex="1" parent="1">
          <mxGeometry x="1169" y="4580" width="220" height="80" as="geometry" />
        </mxCell>
        <mxCell id="rt0IrwSkyU84ZXrt_7lH-5" style="edgeStyle=orthogonalEdgeStyle;rounded=0;orthogonalLoop=1;jettySize=auto;html=1;exitX=0.5;exitY=1;exitDx=0;exitDy=0;entryX=0.5;entryY=0;entryDx=0;entryDy=0;fontSize=18;" edge="1" target="rt0IrwSkyU84ZXrt_7lH-6" parent="1" source="3kbX1bf6PnozNMtrNUod-7">
          <mxGeometry relative="1" as="geometry">
            <mxPoint x="1809.999999999999" y="3510" as="sourcePoint" />
          </mxGeometry>
        </mxCell>
        <mxCell id="rt0IrwSkyU84ZXrt_7lH-6" value="&lt;font style=&quot;font-size: 18px&quot;&gt;Forward the order to pre-print stage&lt;/font&gt;" style="rounded=1;whiteSpace=wrap;html=1;fillColor=#d5e8d4;strokeColor=#82b366;" vertex="1" parent="1">
          <mxGeometry x="1700" y="3620" width="220" height="80" as="geometry" />
        </mxCell>
      </root>
    </mxGraphModel>
  </diagram>
</mxfile>
